<svg xmlns="http://www.w3.org/2000/svg" width="20.564" height="20.46" viewBox="0 0 20.564 20.46">
  <g id="Group_305" data-name="Group 305" transform="translate(0 -1.5)">
    <path id="Path_68" data-name="Path 68" d="M18.978,51.151a.514.514,0,0,0-.513.513v4.548a1.543,1.543,0,0,1-1.538,1.538H2.559A1.543,1.543,0,0,1,1.02,56.212V42.864a1.543,1.543,0,0,1,1.538-1.538H7.107a.513.513,0,0,0,0-1.026H2.559A2.567,2.567,0,0,0,0,42.864V56.212a2.559,2.559,0,0,0,2.559,2.559H16.927a2.559,2.559,0,0,0,2.559-2.559V51.663A.507.507,0,0,0,18.978,51.151Z" transform="translate(0 -36.81)" fill="#aaa"/>
    <path id="Path_69" data-name="Path 69" d="M121.765,2.177a2.3,2.3,0,0,0-3.261,0l-9.133,9.138a.529.529,0,0,0-.133.226l-1.2,4.338a.5.5,0,0,0,.133.5.524.524,0,0,0,.5.133l4.338-1.2a.482.482,0,0,0,.226-.133l9.138-9.138a2.312,2.312,0,0,0,0-3.261Zm-11.276,9.466,7.476-7.476,2.41,2.41L112.9,14.058Zm-.482.969,1.928,1.928-2.666.738Zm11.635-7.3-.544.544-2.41-2.41.544-.544a1.284,1.284,0,0,1,1.81,0l.6.6A1.275,1.275,0,0,1,121.642,5.31Z" transform="translate(-102.479 0)" fill="#aaa"/>
  </g>
</svg>
