<svg xmlns="http://www.w3.org/2000/svg" xmlns:xlink="http://www.w3.org/1999/xlink" width="13.6" height="18.335" viewBox="0 0 13.6 18.335">
  <defs>
    <clipPath id="clip-path">
      <rect width="13.6" height="18.335" fill="none"/>
    </clipPath>
  </defs>
  <g id="Repeat_Grid_3" data-name="Repeat Grid 3" clip-path="url(#clip-path)">
    <g id="Group_307" data-name="Group 307" transform="translate(-60)">
      <path id="Path_70" data-name="Path 70" d="M282.993,193.8a.394.394,0,0,0,.393-.393v-7.813a.393.393,0,0,0-.785,0v7.813A.394.394,0,0,0,282.993,193.8Z" transform="translate(-213.861 -177.929)" fill="#aaa"/>
      <path id="Path_71" data-name="Path 71" d="M164.193,193.8a.394.394,0,0,0,.393-.393v-7.813a.393.393,0,1,0-.785,0v7.813A.394.394,0,0,0,164.193,193.8Z" transform="translate(-99.725 -177.929)" fill="#aaa"/>
      <path id="Path_72" data-name="Path 72" d="M72.03,2.073H70.114v-.5A1.57,1.57,0,0,0,68.543,0H65.057a1.57,1.57,0,0,0-1.57,1.57v.5H61.57A1.57,1.57,0,0,0,60,3.643v2.2a.394.394,0,0,0,.393.393h.73V16.254a2.12,2.12,0,0,0,.569,1.484,1.894,1.894,0,0,0,1.394.6h7.428a1.894,1.894,0,0,0,1.394-.6,2.138,2.138,0,0,0,.569-1.484V6.235h.73a.394.394,0,0,0,.393-.393v-2.2A1.57,1.57,0,0,0,72.03,2.073Zm-7.758-.5a.788.788,0,0,1,.785-.785h3.486a.788.788,0,0,1,.785.785v.5H64.272Zm7.42,14.684a1.214,1.214,0,0,1-1.178,1.3H63.086a1.214,1.214,0,0,1-1.178-1.3V6.235h9.784Zm1.123-10.8H60.785V3.643a.788.788,0,0,1,.785-.785H72.03a.788.788,0,0,1,.785.785Z" fill="#aaa"/>
    </g>
  </g>
</svg>
